<mxfile host="app.diagrams.net" agent="Mozilla/5.0 (Windows NT 10.0; Win64; x64) AppleWebKit/537.36 (KHTML, like Gecko) Chrome/126.0.0.0 Safari/537.36 OPR/112.0.0.0" version="24.7.7">
  <diagram name="Página-1" id="Xddk8IF7djXrLTCOrbah">
    <mxGraphModel dx="1469" dy="1956" grid="1" gridSize="10" guides="1" tooltips="1" connect="1" arrows="1" fold="1" page="1" pageScale="1" pageWidth="827" pageHeight="1169" math="0" shadow="0">
      <root>
        <mxCell id="0" />
        <mxCell id="1" parent="0" />
        <mxCell id="HQmOSCLPY98fKY2TpQmA-1" value="&lt;h2&gt;&lt;font style=&quot;font-size: 18px;&quot;&gt;Estudiantes&lt;/font&gt;&lt;/h2&gt;" style="swimlane;whiteSpace=wrap;html=1;" vertex="1" parent="1">
          <mxGeometry x="440" y="-200" width="200" height="210" as="geometry" />
        </mxCell>
        <mxCell id="HQmOSCLPY98fKY2TpQmA-5" value="&lt;div&gt;&lt;font style=&quot;font-size: 14px;&quot;&gt;&lt;span style=&quot;white-space-collapse: preserve;&quot;&gt;&#x9;&lt;/span&gt;ID_Estudiante (PK)&lt;/font&gt;&lt;/div&gt;&lt;div&gt;&lt;font style=&quot;font-size: 18px;&quot;&gt;&lt;span style=&quot;white-space-collapse: preserve;&quot;&gt;&#x9;&lt;/span&gt;Nombre&lt;/font&gt;&lt;/div&gt;&lt;div&gt;&lt;font size=&quot;3&quot;&gt;&lt;span style=&quot;white-space-collapse: preserve;&quot;&gt;&#x9;&lt;/span&gt;Correo Electrónico&lt;/font&gt;&lt;/div&gt;&lt;div&gt;&lt;font size=&quot;3&quot;&gt;&lt;span style=&quot;white-space-collapse: preserve;&quot;&gt;&#x9;&lt;/span&gt;Contraseña&lt;/font&gt;&lt;/div&gt;&lt;div&gt;&lt;font size=&quot;3&quot;&gt;&lt;span style=&quot;white-space-collapse: preserve;&quot;&gt;&#x9;&lt;/span&gt;Fecha de Registro&lt;/font&gt;&lt;/div&gt;&lt;div&gt;&lt;font size=&quot;3&quot;&gt;&lt;span style=&quot;white-space-collapse: preserve;&quot;&gt;&#x9;&lt;/span&gt;Id_curso&lt;/font&gt;&lt;/div&gt;&lt;div&gt;&lt;font size=&quot;3&quot;&gt;&lt;span style=&quot;white-space-collapse: preserve;&quot;&gt;&#x9;&lt;/span&gt;Id_comentario&lt;/font&gt;&lt;/div&gt;&lt;div&gt;&lt;font size=&quot;3&quot;&gt;&lt;span style=&quot;white-space-collapse: preserve;&quot;&gt;&#x9;&lt;/span&gt;Id_respusta&lt;/font&gt;&lt;/div&gt;&lt;div&gt;&lt;br&gt;&lt;/div&gt;" style="text;html=1;align=center;verticalAlign=middle;resizable=0;points=[];autosize=1;strokeColor=none;fillColor=none;" vertex="1" parent="HQmOSCLPY98fKY2TpQmA-1">
          <mxGeometry x="-10" y="20" width="190" height="180" as="geometry" />
        </mxCell>
        <mxCell id="HQmOSCLPY98fKY2TpQmA-2" value="&lt;h2&gt;Cursos&lt;/h2&gt;" style="swimlane;whiteSpace=wrap;html=1;" vertex="1" parent="1">
          <mxGeometry x="1020" y="-200" width="200" height="170" as="geometry" />
        </mxCell>
        <mxCell id="HQmOSCLPY98fKY2TpQmA-3" value="&lt;div&gt;&lt;font style=&quot;font-size: 18px;&quot;&gt;&lt;span style=&quot;white-space-collapse: preserve;&quot;&gt;&#x9;&lt;/span&gt;ID_Curso (PK)&lt;/font&gt;&lt;/div&gt;&lt;div&gt;&lt;font size=&quot;3&quot;&gt;&lt;span style=&quot;white-space-collapse: preserve;&quot;&gt;&#x9;&lt;/span&gt;Nombre&lt;/font&gt;&lt;/div&gt;&lt;div&gt;&lt;font size=&quot;3&quot;&gt;&lt;span style=&quot;white-space-collapse: preserve;&quot;&gt;&#x9;&lt;/span&gt;Descripción&lt;/font&gt;&lt;/div&gt;&lt;div&gt;&lt;font size=&quot;3&quot;&gt;&lt;span style=&quot;white-space-collapse: preserve;&quot;&gt;&#x9;&lt;/span&gt;Duración&lt;/font&gt;&lt;/div&gt;&lt;div&gt;&lt;font size=&quot;3&quot;&gt;&lt;span style=&quot;white-space-collapse: preserve;&quot;&gt;&#x9;&lt;/span&gt;ID_Profesor (FK)&lt;/font&gt;&lt;/div&gt;&lt;div&gt;&lt;br&gt;&lt;/div&gt;" style="text;html=1;align=center;verticalAlign=middle;resizable=0;points=[];autosize=1;strokeColor=none;fillColor=none;" vertex="1" parent="HQmOSCLPY98fKY2TpQmA-2">
          <mxGeometry x="10" y="35" width="180" height="130" as="geometry" />
        </mxCell>
        <mxCell id="HQmOSCLPY98fKY2TpQmA-11" value="&lt;h2&gt;Modulo&lt;/h2&gt;" style="swimlane;whiteSpace=wrap;html=1;" vertex="1" parent="1">
          <mxGeometry x="420" y="130" width="200" height="170" as="geometry" />
        </mxCell>
        <mxCell id="HQmOSCLPY98fKY2TpQmA-12" value="&lt;div&gt;&lt;font style=&quot;font-size: 18px;&quot;&gt;&lt;span style=&quot;white-space-collapse: preserve;&quot;&gt;&#x9;&lt;/span&gt;ID_Curso (PK)&lt;/font&gt;&lt;/div&gt;&lt;div&gt;&lt;font size=&quot;3&quot;&gt;&lt;span style=&quot;white-space-collapse: preserve;&quot;&gt;&#x9;&lt;/span&gt;Nombre&lt;/font&gt;&lt;/div&gt;&lt;div&gt;&lt;font size=&quot;3&quot;&gt;&lt;span style=&quot;white-space-collapse: preserve;&quot;&gt;&#x9;&lt;/span&gt;Descripción&lt;/font&gt;&lt;/div&gt;&lt;div&gt;&lt;font size=&quot;3&quot;&gt;&lt;span style=&quot;white-space-collapse: preserve;&quot;&gt;&#x9;&lt;/span&gt;Duración&lt;/font&gt;&lt;/div&gt;&lt;div&gt;&lt;font size=&quot;3&quot;&gt;&lt;span style=&quot;white-space-collapse: preserve;&quot;&gt;&#x9;&lt;/span&gt;ID_Profesor (FK)&lt;/font&gt;&lt;/div&gt;&lt;div&gt;&lt;br&gt;&lt;/div&gt;" style="text;html=1;align=center;verticalAlign=middle;resizable=0;points=[];autosize=1;strokeColor=none;fillColor=none;" vertex="1" parent="HQmOSCLPY98fKY2TpQmA-11">
          <mxGeometry x="10" y="35" width="180" height="130" as="geometry" />
        </mxCell>
        <mxCell id="HQmOSCLPY98fKY2TpQmA-13" value="&lt;h2&gt;Lección&lt;/h2&gt;" style="swimlane;whiteSpace=wrap;html=1;" vertex="1" parent="1">
          <mxGeometry x="1010" y="150" width="200" height="170" as="geometry" />
        </mxCell>
        <mxCell id="HQmOSCLPY98fKY2TpQmA-14" value="&lt;div&gt;&lt;span style=&quot;color: rgba(0, 0, 0, 0); font-family: monospace; font-size: 0px; text-align: start;&quot;&gt;%3CmxGraphModel%3E%3Croot%3E%3CmxCell%20id%3D%220%22%2F%3E%3CmxCell%20id%3D%221%22%20parent%3D%220%22%2F%3E%3CmxCell%20id%3D%222%22%20value%3D%22%26lt%3Bh2%26gt%3BModulo%26lt%3B%2Fh2%26gt%3B%22%20style%3D%22swimlane%3BwhiteSpace%3Dwrap%3Bhtml%3D1%3B%22%20vertex%3D%221%22%20parent%3D%221%22%3E%3CmxGeometry%20x%3D%22420%22%20y%3D%22130%22%20width%3D%22200%22%20height%3D%22170%22%20as%3D%22geometry%22%2F%3E%3C%2FmxCell%3E%3CmxCell%20id%3D%223%22%20value%3D%22%26lt%3Bdiv%26gt%3B%26lt%3Bfont%20style%3D%26quot%3Bfont-size%3A%2018px%3B%26quot%3B%26gt%3B%26lt%3Bspan%20style%3D%26quot%3Bwhite-space-collapse%3A%20preserve%3B%26quot%3B%26gt%3B%26%239%3B%26lt%3B%2Fspan%26gt%3BID_Curso%20(PK)%26lt%3B%2Ffont%26gt%3B%26lt%3B%2Fdiv%26gt%3B%26lt%3Bdiv%26gt%3B%26lt%3Bfont%20size%3D%26quot%3B3%26quot%3B%26gt%3B%26lt%3Bspan%20style%3D%26quot%3Bwhite-space-collapse%3A%20preserve%3B%26quot%3B%26gt%3B%26%239%3B%26lt%3B%2Fspan%26gt%3BNombre%26lt%3B%2Ffont%26gt%3B%26lt%3B%2Fdiv%26gt%3B%26lt%3Bdiv%26gt%3B%26lt%3Bfont%20size%3D%26quot%3B3%26quot%3B%26gt%3B%26lt%3Bspan%20style%3D%26quot%3Bwhite-space-collapse%3A%20preserve%3B%26quot%3B%26gt%3B%26%239%3B%26lt%3B%2Fspan%26gt%3BDescripci%C3%B3n%26lt%3B%2Ffont%26gt%3B%26lt%3B%2Fdiv%26gt%3B%26lt%3Bdiv%26gt%3B%26lt%3Bfont%20size%3D%26quot%3B3%26quot%3B%26gt%3B%26lt%3Bspan%20style%3D%26quot%3Bwhite-space-collapse%3A%20preserve%3B%26quot%3B%26gt%3B%26%239%3B%26lt%3B%2Fspan%26gt%3BDuraci%C3%B3n%26lt%3B%2Ffont%26gt%3B%26lt%3B%2Fdiv%26gt%3B%26lt%3Bdiv%26gt%3B%26lt%3Bfont%20size%3D%26quot%3B3%26quot%3B%26gt%3B%26lt%3Bspan%20style%3D%26quot%3Bwhite-space-collapse%3A%20preserve%3B%26quot%3B%26gt%3B%26%239%3B%26lt%3B%2Fspan%26gt%3BID_Profesor%20(FK)%26lt%3B%2Ffont%26gt%3B%26lt%3B%2Fdiv%26gt%3B%26lt%3Bdiv%26gt%3B%26lt%3Bbr%26gt%3B%26lt%3B%2Fdiv%26gt%3B%22%20style%3D%22text%3Bhtml%3D1%3Balign%3Dcenter%3BverticalAlign%3Dmiddle%3Bresizable%3D0%3Bpoints%3D%5B%5D%3Bautosize%3D1%3BstrokeColor%3Dnone%3BfillColor%3Dnone%3B%22%20vertex%3D%221%22%20parent%3D%222%22%3E%3CmxGeometry%20x%3D%2210%22%20y%3D%2235%22%20width%3D%22180%22%20height%3D%22130%22%20as%3D%22geometry%22%2F%3E%3C%2FmxCell%3E%3C%2Froot%3E%3C%2FmxGraphModel%3E&lt;/span&gt;&lt;span style=&quot;color: rgba(0, 0, 0, 0); font-family: monospace; font-size: 0px; text-align: start; background-color: initial;&quot;&gt;%3CmxGraphModel%3E%3Croot%3E%3CmxCell%20id%3D%220%22%2F%3E%3CmxCell%20id%3D%221%22%20parent%3D%220%22%2F%3E%3CmxCell%20id%3D%222%22%20value%3D%22%26lt%3Bh2%26gt%3BModulo%26lt%3B%2Fh2%26gt%3B%22%20style%3D%22swimlane%3BwhiteSpace%3Dwrap%3Bhtml%3D1%3B%22%20vertex%3D%221%22%20parent%3D%221%22%3E%3CmxGeometry%20x%3D%22420%22%20y%3D%22130%22%20width%3D%22200%22%20height%3D%22170%22%20as%3D%22geometry%22%2F%3E%3C%2FmxCell%3E%3CmxCell%20id%3D%223%22%20value%3D%22%26lt%3Bdiv%26gt%3B%26lt%3Bfont%20style%3D%26quot%3Bfont-size%3A%2018px%3B%26quot%3B%26gt%3B%26lt%3Bspan%20style%3D%26quot%3Bwhite-space-collapse%3A%20preserve%3B%26quot%3B%26gt%3B%26%239%3B%26lt%3B%2Fspan%26gt%3BID_Curso%20(PK)%26lt%3B%2Ffont%26gt%3B%26lt%3B%2Fdiv%26gt%3B%26lt%3Bdiv%26gt%3B%26lt%3Bfont%20size%3D%26quot%3B3%26quot%3B%26gt%3B%26lt%3Bspan%20style%3D%26quot%3Bwhite-space-collapse%3A%20preserve%3B%26quot%3B%26gt%3B%26%239%3B%26lt%3B%2Fspan%26gt%3BNombre%26lt%3B%2Ffont%26gt%3B%26lt%3B%2Fdiv%26gt%3B%26lt%3Bdiv%26gt%3B%26lt%3Bfont%20size%3D%26quot%3B3%26quot%3B%26gt%3B%26lt%3Bspan%20style%3D%26quot%3Bwhite-space-collapse%3A%20preserve%3B%26quot%3B%26gt%3B%26%239%3B%26lt%3B%2Fspan%26gt%3BDescripci%C3%B3n%26lt%3B%2Ffont%26gt%3B%26lt%3B%2Fdiv%26gt%3B%26lt%3Bdiv%26gt%3B%26lt%3Bfont%20size%3D%26quot%3B3%26quot%3B%26gt%3B%26lt%3Bspan%20style%3D%26quot%3Bwhite-space-collapse%3A%20preserve%3B%26quot%3B%26gt%3B%26%239%3B%26lt%3B%2Fspan%26gt%3BDuraci%C3%B3n%26lt%3B%2Ffont%26gt%3B%26lt%3B%2Fdiv%26gt%3B%26lt%3Bdiv%26gt%3B%26lt%3Bfont%20size%3D%26quot%3B3%26quot%3B%26gt%3B%26lt%3Bspan%20style%3D%26quot%3Bwhite-space-collapse%3A%20preserve%3B%26quot%3B%26gt%3B%26%239%3B%26lt%3B%2Fspan%26gt%3BID_Profesor%20(FK)%26lt%3B%2Ffont%26gt%3B%26lt%3B%2Fdiv%26gt%3B%26lt%3Bdiv%26gt%3B%26lt%3Bbr%26gt%3B%26lt%3B%2Fdiv%26gt%3B%22%20style%3D%22text%3Bhtml%3D1%3Balign%3Dcenter%3BverticalAlign%3Dmiddle%3Bresizable%3D0%3Bpoints%3D%5B%5D%3Bautosize%3D1%3BstrokeColor%3Dnone%3BfillColor%3Dnone%3B%22%20vertex%3D%221%22%20parent%3D%222%22%3E%3CmxGeometry%20x%3D%2210%22%20y%3D%2235%22%20width%3D%22180%22%20height%3D%22130%22%20as%3D%22geometry%22%2F%3E%3C%2FmxCell%3E%3C%2Froot%3E%3C%2FmxGraphModel%3E&lt;/span&gt;&lt;br&gt;&lt;/div&gt;" style="text;html=1;align=center;verticalAlign=middle;resizable=0;points=[];autosize=1;strokeColor=none;fillColor=none;" vertex="1" parent="HQmOSCLPY98fKY2TpQmA-13">
          <mxGeometry x="90" y="85" width="20" height="30" as="geometry" />
        </mxCell>
        <mxCell id="HQmOSCLPY98fKY2TpQmA-17" value="&lt;div&gt;&lt;span style=&quot;white-space-collapse: preserve;&quot;&gt;&#x9;&lt;/span&gt;&lt;font style=&quot;font-size: 18px;&quot;&gt;ID_Lección (PK)&lt;/font&gt;&lt;/div&gt;&lt;div&gt;&lt;font size=&quot;3&quot;&gt;&lt;span style=&quot;white-space-collapse: preserve;&quot;&gt;&#x9;&lt;/span&gt;Título&lt;/font&gt;&lt;/div&gt;&lt;div&gt;&lt;font size=&quot;3&quot;&gt;&lt;span style=&quot;white-space-collapse: preserve;&quot;&gt;&#x9;&lt;/span&gt;Tipo&amp;nbsp;&lt;/font&gt;&lt;/div&gt;&lt;div&gt;&lt;font size=&quot;3&quot;&gt;&lt;span style=&quot;white-space-collapse: preserve;&quot;&gt;&#x9;&lt;/span&gt;Contenido&lt;/font&gt;&lt;/div&gt;&lt;div&gt;&lt;font size=&quot;3&quot;&gt;&lt;span style=&quot;white-space-collapse: preserve;&quot;&gt;&#x9;&lt;/span&gt;ID_Módulo (FK)&lt;/font&gt;&lt;/div&gt;&lt;div&gt;&lt;br&gt;&lt;/div&gt;" style="text;html=1;align=center;verticalAlign=middle;resizable=0;points=[];autosize=1;strokeColor=none;fillColor=none;" vertex="1" parent="HQmOSCLPY98fKY2TpQmA-13">
          <mxGeometry x="10" y="30" width="180" height="130" as="geometry" />
        </mxCell>
        <mxCell id="HQmOSCLPY98fKY2TpQmA-18" value="&lt;h2&gt;Profesor&lt;/h2&gt;" style="swimlane;whiteSpace=wrap;html=1;" vertex="1" parent="1">
          <mxGeometry x="720" y="-70" width="200" height="175" as="geometry" />
        </mxCell>
        <mxCell id="HQmOSCLPY98fKY2TpQmA-19" value="&lt;div&gt;&lt;span style=&quot;color: rgba(0, 0, 0, 0); font-family: monospace; font-size: 0px; text-align: start;&quot;&gt;%3CmxGraphModel%3E%3Croot%3E%3CmxCell%20id%3D%220%22%2F%3E%3CmxCell%20id%3D%221%22%20parent%3D%220%22%2F%3E%3CmxCell%20id%3D%222%22%20value%3D%22%26lt%3Bh2%26gt%3BModulo%26lt%3B%2Fh2%26gt%3B%22%20style%3D%22swimlane%3BwhiteSpace%3Dwrap%3Bhtml%3D1%3B%22%20vertex%3D%221%22%20parent%3D%221%22%3E%3CmxGeometry%20x%3D%22420%22%20y%3D%22130%22%20width%3D%22200%22%20height%3D%22170%22%20as%3D%22geometry%22%2F%3E%3C%2FmxCell%3E%3CmxCell%20id%3D%223%22%20value%3D%22%26lt%3Bdiv%26gt%3B%26lt%3Bfont%20style%3D%26quot%3Bfont-size%3A%2018px%3B%26quot%3B%26gt%3B%26lt%3Bspan%20style%3D%26quot%3Bwhite-space-collapse%3A%20preserve%3B%26quot%3B%26gt%3B%26%239%3B%26lt%3B%2Fspan%26gt%3BID_Curso%20(PK)%26lt%3B%2Ffont%26gt%3B%26lt%3B%2Fdiv%26gt%3B%26lt%3Bdiv%26gt%3B%26lt%3Bfont%20size%3D%26quot%3B3%26quot%3B%26gt%3B%26lt%3Bspan%20style%3D%26quot%3Bwhite-space-collapse%3A%20preserve%3B%26quot%3B%26gt%3B%26%239%3B%26lt%3B%2Fspan%26gt%3BNombre%26lt%3B%2Ffont%26gt%3B%26lt%3B%2Fdiv%26gt%3B%26lt%3Bdiv%26gt%3B%26lt%3Bfont%20size%3D%26quot%3B3%26quot%3B%26gt%3B%26lt%3Bspan%20style%3D%26quot%3Bwhite-space-collapse%3A%20preserve%3B%26quot%3B%26gt%3B%26%239%3B%26lt%3B%2Fspan%26gt%3BDescripci%C3%B3n%26lt%3B%2Ffont%26gt%3B%26lt%3B%2Fdiv%26gt%3B%26lt%3Bdiv%26gt%3B%26lt%3Bfont%20size%3D%26quot%3B3%26quot%3B%26gt%3B%26lt%3Bspan%20style%3D%26quot%3Bwhite-space-collapse%3A%20preserve%3B%26quot%3B%26gt%3B%26%239%3B%26lt%3B%2Fspan%26gt%3BDuraci%C3%B3n%26lt%3B%2Ffont%26gt%3B%26lt%3B%2Fdiv%26gt%3B%26lt%3Bdiv%26gt%3B%26lt%3Bfont%20size%3D%26quot%3B3%26quot%3B%26gt%3B%26lt%3Bspan%20style%3D%26quot%3Bwhite-space-collapse%3A%20preserve%3B%26quot%3B%26gt%3B%26%239%3B%26lt%3B%2Fspan%26gt%3BID_Profesor%20(FK)%26lt%3B%2Ffont%26gt%3B%26lt%3B%2Fdiv%26gt%3B%26lt%3Bdiv%26gt%3B%26lt%3Bbr%26gt%3B%26lt%3B%2Fdiv%26gt%3B%22%20style%3D%22text%3Bhtml%3D1%3Balign%3Dcenter%3BverticalAlign%3Dmiddle%3Bresizable%3D0%3Bpoints%3D%5B%5D%3Bautosize%3D1%3BstrokeColor%3Dnone%3BfillColor%3Dnone%3B%22%20vertex%3D%221%22%20parent%3D%222%22%3E%3CmxGeometry%20x%3D%2210%22%20y%3D%2235%22%20width%3D%22180%22%20height%3D%22130%22%20as%3D%22geometry%22%2F%3E%3C%2FmxCell%3E%3C%2Froot%3E%3C%2FmxGraphModel%3E&lt;/span&gt;&lt;span style=&quot;color: rgba(0, 0, 0, 0); font-family: monospace; font-size: 0px; text-align: start; background-color: initial;&quot;&gt;%3CmxGraphModel%3E%3Croot%3E%3CmxCell%20id%3D%220%22%2F%3E%3CmxCell%20id%3D%221%22%20parent%3D%220%22%2F%3E%3CmxCell%20id%3D%222%22%20value%3D%22%26lt%3Bh2%26gt%3BModulo%26lt%3B%2Fh2%26gt%3B%22%20style%3D%22swimlane%3BwhiteSpace%3Dwrap%3Bhtml%3D1%3B%22%20vertex%3D%221%22%20parent%3D%221%22%3E%3CmxGeometry%20x%3D%22420%22%20y%3D%22130%22%20width%3D%22200%22%20height%3D%22170%22%20as%3D%22geometry%22%2F%3E%3C%2FmxCell%3E%3CmxCell%20id%3D%223%22%20value%3D%22%26lt%3Bdiv%26gt%3B%26lt%3Bfont%20style%3D%26quot%3Bfont-size%3A%2018px%3B%26quot%3B%26gt%3B%26lt%3Bspan%20style%3D%26quot%3Bwhite-space-collapse%3A%20preserve%3B%26quot%3B%26gt%3B%26%239%3B%26lt%3B%2Fspan%26gt%3BID_Curso%20(PK)%26lt%3B%2Ffont%26gt%3B%26lt%3B%2Fdiv%26gt%3B%26lt%3Bdiv%26gt%3B%26lt%3Bfont%20size%3D%26quot%3B3%26quot%3B%26gt%3B%26lt%3Bspan%20style%3D%26quot%3Bwhite-space-collapse%3A%20preserve%3B%26quot%3B%26gt%3B%26%239%3B%26lt%3B%2Fspan%26gt%3BNombre%26lt%3B%2Ffont%26gt%3B%26lt%3B%2Fdiv%26gt%3B%26lt%3Bdiv%26gt%3B%26lt%3Bfont%20size%3D%26quot%3B3%26quot%3B%26gt%3B%26lt%3Bspan%20style%3D%26quot%3Bwhite-space-collapse%3A%20preserve%3B%26quot%3B%26gt%3B%26%239%3B%26lt%3B%2Fspan%26gt%3BDescripci%C3%B3n%26lt%3B%2Ffont%26gt%3B%26lt%3B%2Fdiv%26gt%3B%26lt%3Bdiv%26gt%3B%26lt%3Bfont%20size%3D%26quot%3B3%26quot%3B%26gt%3B%26lt%3Bspan%20style%3D%26quot%3Bwhite-space-collapse%3A%20preserve%3B%26quot%3B%26gt%3B%26%239%3B%26lt%3B%2Fspan%26gt%3BDuraci%C3%B3n%26lt%3B%2Ffont%26gt%3B%26lt%3B%2Fdiv%26gt%3B%26lt%3Bdiv%26gt%3B%26lt%3Bfont%20size%3D%26quot%3B3%26quot%3B%26gt%3B%26lt%3Bspan%20style%3D%26quot%3Bwhite-space-collapse%3A%20preserve%3B%26quot%3B%26gt%3B%26%239%3B%26lt%3B%2Fspan%26gt%3BID_Profesor%20(FK)%26lt%3B%2Ffont%26gt%3B%26lt%3B%2Fdiv%26gt%3B%26lt%3Bdiv%26gt%3B%26lt%3Bbr%26gt%3B%26lt%3B%2Fdiv%26gt%3B%22%20style%3D%22text%3Bhtml%3D1%3Balign%3Dcenter%3BverticalAlign%3Dmiddle%3Bresizable%3D0%3Bpoints%3D%5B%5D%3Bautosize%3D1%3BstrokeColor%3Dnone%3BfillColor%3Dnone%3B%22%20vertex%3D%221%22%20parent%3D%222%22%3E%3CmxGeometry%20x%3D%2210%22%20y%3D%2235%22%20width%3D%22180%22%20height%3D%22130%22%20as%3D%22geometry%22%2F%3E%3C%2FmxCell%3E%3C%2Froot%3E%3C%2FmxGraphModel%3E&lt;/span&gt;&lt;br&gt;&lt;/div&gt;" style="text;html=1;align=center;verticalAlign=middle;resizable=0;points=[];autosize=1;strokeColor=none;fillColor=none;" vertex="1" parent="HQmOSCLPY98fKY2TpQmA-18">
          <mxGeometry x="90" y="85" width="20" height="30" as="geometry" />
        </mxCell>
        <mxCell id="HQmOSCLPY98fKY2TpQmA-20" value="&lt;div&gt;&lt;span style=&quot;white-space-collapse: preserve;&quot;&gt;&#x9;&lt;/span&gt;&lt;font style=&quot;font-size: 18px;&quot;&gt;ID_Profesor (PK)&lt;/font&gt;&lt;/div&gt;&lt;div&gt;&lt;font size=&quot;3&quot;&gt;nombre&lt;/font&gt;&lt;/div&gt;&lt;div&gt;&lt;font size=&quot;3&quot;&gt;correo&lt;/font&gt;&lt;/div&gt;&lt;div&gt;&lt;font size=&quot;3&quot;&gt;especialidad&lt;/font&gt;&lt;/div&gt;&lt;div&gt;&lt;font size=&quot;3&quot;&gt;contrasena&lt;/font&gt;&lt;/div&gt;&lt;div&gt;&lt;font size=&quot;3&quot;&gt;fecha_contratacion&lt;/font&gt;&lt;/div&gt;&lt;div&gt;&lt;br&gt;&lt;/div&gt;&lt;div&gt;&lt;br&gt;&lt;/div&gt;" style="text;html=1;align=center;verticalAlign=middle;resizable=0;points=[];autosize=1;strokeColor=none;fillColor=none;" vertex="1" parent="HQmOSCLPY98fKY2TpQmA-18">
          <mxGeometry x="5" y="30" width="190" height="160" as="geometry" />
        </mxCell>
      </root>
    </mxGraphModel>
  </diagram>
</mxfile>
